<svg width="701" height="381" viewBox="0 0 701 381" fill="none" xmlns="http://www.w3.org/2000/svg">
<g filter="url(#filter0_d_156_12)">
<path d="M114.999 248.248V288.053C114.999 307.955 106.214 315.12 92.2367 315.12C78.2599 315.12 69.4745 307.955 69.4745 288.053V137.592C69.4745 117.69 78.2599 110.127 92.2367 110.127C106.214 110.127 114.999 117.69 114.999 137.592V167.445H156.53V140.378C156.53 95.7973 134.167 70.3225 91.0387 70.3225C47.9103 70.3225 25.5474 95.7973 25.5474 140.378V285.267C25.5474 329.848 47.9103 355.323 91.0387 355.323C134.167 355.323 156.53 329.848 156.53 285.267V248.248H114.999Z" fill="#57E7FF"/>
<path d="M265.047 224.366L283.017 155.902V352.138H322.552V73.5068H274.232L238.291 188.542L222.318 249.841V73.5068H183.183V352.138H228.308L265.047 224.366Z" fill="#57E7FF"/>
<path d="M341.224 352.536H348.012C391.94 352.536 410.309 332.634 411.907 281.684L416.699 113.311H455.035V352.138H499.761V73.5068H375.567L368.379 284.073C367.58 309.945 361.191 312.732 341.224 312.732V352.536Z" fill="#57E7FF"/>
<path d="M630.821 73.5068H566.528L521.802 352.138H562.135L569.723 301.586H623.633L631.221 352.138H675.547L630.821 73.5068ZM596.478 122.864L617.643 263.772H575.314L596.478 122.864Z" fill="#57E7FF"/>
</g>
<g filter="url(#filter1_d_156_12)">
<path d="M31.7737 40.2382H39.6619C43.5943 40.2382 46.6918 41.2035 48.9545 43.1341C51.2328 45.0646 52.372 47.5314 52.372 50.5345C52.372 53.6141 51.2406 56.1039 48.9779 58.0038C46.7152 59.9344 43.6099 60.8996 39.6619 60.8996H25.5474V27.9425H48.8141V32.4701H31.7737V40.2382ZM31.7503 56.0043H39.0299C41.1521 56.0043 42.8687 55.5217 44.1795 54.5564C45.4903 53.6065 46.1457 52.2658 46.1457 50.5345C46.1145 48.8184 45.4513 47.4931 44.1561 46.5585C42.8297 45.6085 41.1209 45.1335 39.0299 45.1335H31.7503V56.0043Z" fill="#57E7FF"/>
<path d="M68.9442 34.6305C71.2225 34.6305 73.2278 35.0288 74.9599 35.8256C76.7076 36.6223 77.9872 37.7178 78.7987 39.1121L79.0561 35.0212H84.6505V60.8996H79.0561L78.7987 56.8087C77.2538 59.7965 73.969 61.2827 68.9442 61.2674C67.2433 61.3133 65.6126 60.9992 64.0522 60.3251C62.4917 59.6356 61.1419 58.701 60.0027 57.5212C58.8636 56.3414 57.9585 54.9165 57.2875 53.2464C56.6321 51.5763 56.32 49.8143 56.3512 47.9604C56.3044 45.4936 56.8505 43.226 57.9897 41.1575C59.1288 39.0891 60.6737 37.4727 62.6243 36.3082C64.5749 35.1438 66.6816 34.5845 68.9442 34.6305ZM70.4891 56.3491C72.8142 56.3491 74.7804 55.5447 76.3877 53.9359C77.995 52.3577 78.7987 50.3583 78.7987 47.9374C78.7987 45.5319 77.995 43.5324 76.3877 41.939C74.7648 40.3455 72.7986 39.5488 70.4891 39.5488C68.2108 39.5488 66.2602 40.3455 64.6373 41.939C63.03 43.5324 62.2264 45.5319 62.2264 47.9374C62.2264 50.3583 63.03 52.3577 64.6373 53.9359C66.2446 55.5447 68.1952 56.3491 70.4891 56.3491Z" fill="#57E7FF"/>
<path d="M106.513 61.2674C104.219 61.2674 102.198 60.8766 100.45 60.0952C98.7182 59.2985 97.4464 58.203 96.6349 56.8087V70.3225H90.7831V35.0212H96.3774L96.6349 39.1121C98.1798 36.1243 101.472 34.6305 106.513 34.6305C108.775 34.5845 110.882 35.1438 112.833 36.3082C114.783 37.4727 116.328 39.0891 117.467 41.1575C118.606 43.226 119.153 45.4936 119.106 47.9604C119.137 49.8143 118.817 51.5763 118.146 53.2464C117.491 54.9165 116.593 56.3414 115.454 57.5212C114.315 58.701 112.965 59.6356 111.405 60.3251C109.844 60.9992 108.214 61.3133 106.513 61.2674ZM110.82 41.939C109.197 40.3455 107.238 39.5488 104.944 39.5488C102.651 39.5488 100.692 40.3455 99.0693 41.939C97.4464 43.5631 96.6349 45.5626 96.6349 47.9374C96.6349 50.3429 97.4464 52.3424 99.0693 53.9359C100.677 55.5447 102.635 56.3491 104.944 56.3491C107.238 56.3491 109.197 55.5523 110.82 53.9589C112.427 52.3807 113.231 50.3736 113.231 47.9374C113.231 45.5166 112.427 43.5171 110.82 41.939Z" fill="#57E7FF"/>
<path d="M148.388 56.464C149.886 56.464 151.236 56.1192 152.438 55.4298C153.639 54.725 154.591 53.729 155.293 52.442L160.583 54.6254C159.46 56.6632 157.806 58.2719 155.621 59.4517C153.436 60.6468 151.025 61.2444 148.388 61.2444C145.813 61.2444 143.465 60.7081 141.343 59.6356C139.189 58.5477 137.473 56.9849 136.193 54.9471C134.898 52.894 134.25 50.5651 134.25 47.9604C134.25 45.3404 134.898 43.0038 136.193 40.9507C137.473 38.9129 139.189 37.3501 141.343 36.2622C143.465 35.1897 145.813 34.6535 148.388 34.6535C151.025 34.6535 153.444 35.251 155.644 36.4461C157.845 37.6565 159.491 39.273 160.583 41.2954L155.293 43.4558C154.591 42.1688 153.639 41.1805 152.438 40.491C151.236 39.7862 149.886 39.4338 148.388 39.4338C146.094 39.4338 144.136 40.2382 142.513 41.847C140.906 43.4405 140.102 45.4783 140.102 47.9604C140.102 50.4425 140.906 52.4727 142.513 54.0508C144.136 55.6596 146.094 56.464 148.388 56.464Z" fill="#57E7FF"/>
<path d="M177.062 56.0273L184.295 35.0212H190.662L180.479 60.5319C179.153 63.7495 177.366 66.0554 175.119 67.4497C172.872 68.8593 169.97 69.4262 166.412 69.1504L166.107 64.9216C170.602 64.9216 173.145 63.6805 173.738 61.1984L163.462 35.0212H169.853L177.062 56.0273Z" fill="#57E7FF"/>
<path d="M194.898 35.0212H220.997V60.8996H214.771V39.5488H201.125V60.8996H194.898V35.0212Z" fill="#57E7FF"/>
<path d="M239.957 34.6305C241.986 34.6305 243.889 34.9982 245.668 35.7336C247.447 36.4538 248.969 37.4727 250.233 38.7903C251.497 40.108 252.449 41.7321 253.088 43.6627C253.744 45.5779 254.009 47.654 253.884 49.8909H231.858C232.248 51.8981 233.2 53.5299 234.714 54.7862C236.196 56.0426 237.944 56.6708 239.957 56.6708C241.674 56.6708 243.195 56.2342 244.521 55.3608C245.863 54.4875 246.886 53.2694 247.588 51.7066L252.597 54.0738C251.458 56.2801 249.741 58.0345 247.447 59.3368C245.185 60.6238 242.688 61.2674 239.957 61.2674C238.069 61.2674 236.266 60.9533 234.55 60.3251C232.833 59.6969 231.328 58.8082 230.032 57.6591C228.722 56.4946 227.692 55.0774 226.943 53.4073C226.194 51.7219 225.819 49.9063 225.819 47.9604C225.819 46.0145 226.194 44.2066 226.943 42.5365C227.692 40.8511 228.722 39.4185 230.032 38.2388C231.328 37.0896 232.833 36.201 234.55 35.5728C236.266 34.9446 238.069 34.6305 239.957 34.6305ZM239.957 39.25C237.882 39.25 236.103 39.8705 234.62 41.1116C233.169 42.3373 232.24 43.9767 231.835 46.0299H248.103C247.697 43.9614 246.768 42.3143 245.317 41.0886C243.835 39.8629 242.048 39.25 239.957 39.25Z" fill="#57E7FF"/>
<path d="M274.436 61.2674C272.142 61.2674 270.121 60.8766 268.373 60.0952C266.641 59.2985 265.369 58.203 264.558 56.8087V70.3225H258.706V35.0212H264.3L264.558 39.1121C266.103 36.1243 269.395 34.6305 274.436 34.6305C276.698 34.5845 278.805 35.1438 280.756 36.3082C282.706 37.4727 284.251 39.0891 285.39 41.1575C286.529 43.226 287.076 45.4936 287.029 47.9604C287.06 49.8143 286.74 51.5763 286.069 53.2464C285.414 54.9165 284.516 56.3414 283.377 57.5212C282.238 58.701 280.888 59.6356 279.328 60.3251C277.767 60.9992 276.137 61.3133 274.436 61.2674ZM278.743 41.939C277.12 40.3455 275.161 39.5488 272.867 39.5488C270.574 39.5488 268.615 40.3455 266.992 41.939C265.369 43.5631 264.558 45.5626 264.558 47.9374C264.558 50.3429 265.369 52.3424 266.992 53.9359C268.6 55.5447 270.558 56.3491 272.867 56.3491C275.161 56.3491 277.12 55.5523 278.743 53.9589C280.35 52.3807 281.154 50.3736 281.154 47.9374C281.154 45.5166 280.35 43.5171 278.743 41.939Z" fill="#57E7FF"/>
<path d="M305.263 56.464C306.761 56.464 308.111 56.1192 309.312 55.4298C310.514 54.725 311.466 53.729 312.168 52.442L317.458 54.6254C316.335 56.6632 314.68 58.2719 312.496 59.4517C310.311 60.6468 307.9 61.2444 305.263 61.2444C302.688 61.2444 300.34 60.7081 298.217 59.6356C296.064 58.5477 294.347 56.9849 293.068 54.9471C291.773 52.894 291.125 50.5651 291.125 47.9604C291.125 45.3404 291.773 43.0038 293.068 40.9507C294.347 38.9129 296.064 37.3501 298.217 36.2622C300.34 35.1897 302.688 34.6535 305.263 34.6535C307.9 34.6535 310.319 35.251 312.519 36.4461C314.719 37.6565 316.366 39.273 317.458 41.2954L312.168 43.4558C311.466 42.1688 310.514 41.1805 309.312 40.491C308.111 39.7862 306.761 39.4338 305.263 39.4338C302.969 39.4338 301.011 40.2382 299.388 41.847C297.781 43.4405 296.977 45.4783 296.977 47.9604C296.977 50.4425 297.781 52.4727 299.388 54.0508C301.011 55.6596 302.969 56.464 305.263 56.464Z" fill="#57E7FF"/>
<path d="M322.28 35.0212H348.379V60.8996H342.153V39.5488H328.506V60.8996H322.28V35.0212Z" fill="#57E7FF"/>
<path d="M374.384 59.6356C372.262 60.7081 369.914 61.2444 367.339 61.2444C364.764 61.2444 362.415 60.7081 360.293 59.6356C358.14 58.5477 356.423 56.9849 355.144 54.9471C353.848 52.894 353.201 50.5651 353.201 47.9604C353.201 45.3404 353.848 43.0038 355.144 40.9507C356.423 38.9129 358.14 37.3501 360.293 36.2622C362.415 35.1897 364.764 34.6535 367.339 34.6535C369.914 34.6535 372.262 35.1897 374.384 36.2622C376.522 37.3501 378.247 38.9129 379.557 40.9507C380.853 43.0038 381.5 45.3404 381.5 47.9604C381.5 50.5651 380.853 52.894 379.557 54.9471C378.247 56.9849 376.522 58.5477 374.384 59.6356ZM359.029 47.9374C359.029 50.3583 359.841 52.3654 361.464 53.9589C363.086 55.5523 365.053 56.3491 367.362 56.3491C369.656 56.3491 371.615 55.5523 373.237 53.9589C374.845 52.3807 375.648 50.3736 375.648 47.9374C375.648 45.5166 374.845 43.5171 373.237 41.939C371.615 40.3455 369.656 39.5488 367.362 39.5488C365.053 39.5488 363.086 40.3455 361.464 41.939C359.841 43.5324 359.029 45.5319 359.029 47.9374Z" fill="#57E7FF"/>
<path d="M399.781 56.464C401.279 56.464 402.629 56.1192 403.831 55.4298C405.032 54.725 405.984 53.729 406.686 52.442L411.976 54.6254C410.853 56.6632 409.199 58.2719 407.014 59.4517C404.829 60.6468 402.418 61.2444 399.781 61.2444C397.206 61.2444 394.858 60.7081 392.736 59.6356C390.582 58.5477 388.866 56.9849 387.586 54.9471C386.291 52.894 385.643 50.5651 385.643 47.9604C385.643 45.3404 386.291 43.0038 387.586 40.9507C388.866 38.9129 390.582 37.3501 392.736 36.2622C394.858 35.1897 397.206 34.6535 399.781 34.6535C402.418 34.6535 404.837 35.251 407.037 36.4461C409.238 37.6565 410.884 39.273 411.976 41.2954L406.686 43.4558C405.984 42.1688 405.032 41.1805 403.831 40.491C402.629 39.7862 401.279 39.4338 399.781 39.4338C397.487 39.4338 395.529 40.2382 393.906 41.847C392.299 43.4405 391.495 45.4783 391.495 47.9604C391.495 50.4425 392.299 52.4727 393.906 54.0508C395.529 55.6596 397.487 56.464 399.781 56.464Z" fill="#57E7FF"/>
<path d="M436.694 59.6356C434.572 60.7081 432.223 61.2444 429.649 61.2444C427.074 61.2444 424.725 60.7081 422.603 59.6356C420.45 58.5477 418.733 56.9849 417.454 54.9471C416.158 52.894 415.511 50.5651 415.511 47.9604C415.511 45.3404 416.158 43.0038 417.454 40.9507C418.733 38.9129 420.45 37.3501 422.603 36.2622C424.725 35.1897 427.074 34.6535 429.649 34.6535C432.223 34.6535 434.572 35.1897 436.694 36.2622C438.832 37.3501 440.556 38.9129 441.867 40.9507C443.162 43.0038 443.81 45.3404 443.81 47.9604C443.81 50.5651 443.162 52.894 441.867 54.9471C440.556 56.9849 438.832 58.5477 436.694 59.6356ZM421.339 47.9374C421.339 50.3583 422.151 52.3654 423.773 53.9589C425.396 55.5523 427.363 56.3491 429.672 56.3491C431.966 56.3491 433.924 55.5523 435.547 53.9589C437.155 52.3807 437.958 50.3736 437.958 47.9374C437.958 45.5166 437.155 43.5171 435.547 41.939C433.924 40.3455 431.966 39.5488 429.672 39.5488C427.363 39.5488 425.396 40.3455 423.773 41.939C422.151 43.5324 421.339 45.5319 421.339 47.9374Z" fill="#57E7FF"/>
<path d="M462.606 32.8608C457.768 32.8608 454.96 36.1856 454.179 42.8353C454.96 41.4563 456.387 40.3608 458.463 39.5488C460.507 38.752 462.754 38.4686 465.204 38.6984C468.075 38.9742 470.385 40.1463 472.133 42.2147C473.88 44.2679 474.754 46.7117 474.754 49.5462C474.754 52.917 473.498 55.6979 470.986 57.8889C468.458 60.0952 465.282 61.1984 461.459 61.1984C457.62 61.1984 454.445 59.9573 451.932 57.4752C449.42 54.9778 448.164 51.8291 448.164 48.0294C448.164 41.3337 449.342 36.4308 451.698 33.3205C454.055 30.1948 457.69 28.632 462.606 28.632C464.993 28.6014 467.404 28.1877 469.839 27.3909V31.7117C467.358 32.4778 464.947 32.8608 462.606 32.8608ZM461.459 56.8317C463.425 56.8317 465.095 56.1422 466.468 54.7633C467.841 53.415 468.528 51.6759 468.528 49.5462C468.528 47.4318 467.841 45.6928 466.468 44.3291C465.095 42.9502 463.425 42.2607 461.459 42.2607C459.477 42.2607 457.807 42.9425 456.45 44.3062C455.077 45.6698 454.39 47.4165 454.39 49.5462C454.39 51.6913 455.077 53.4379 456.45 54.7862C457.807 56.1499 459.477 56.8317 461.459 56.8317Z" fill="#57E7FF"/>
<path d="M500.034 46.4895V35.0212H506.237V60.8996H500.011V51.0171H486.364V60.8996H480.138V35.0212H486.364V46.4895H500.034Z" fill="#57E7FF"/>
<path d="M532.242 59.6356C530.12 60.7081 527.772 61.2444 525.197 61.2444C522.622 61.2444 520.273 60.7081 518.151 59.6356C515.998 58.5477 514.281 56.9849 513.002 54.9471C511.706 52.894 511.059 50.5651 511.059 47.9604C511.059 45.3404 511.706 43.0038 513.002 40.9507C514.281 38.9129 515.998 37.3501 518.151 36.2622C520.273 35.1897 522.622 34.6535 525.197 34.6535C527.772 34.6535 530.12 35.1897 532.242 36.2622C534.38 37.3501 536.104 38.9129 537.415 40.9507C538.71 43.0038 539.358 45.3404 539.358 47.9604C539.358 50.5651 538.71 52.894 537.415 54.9471C536.104 56.9849 534.38 58.5477 532.242 59.6356ZM516.887 47.9374C516.887 50.3583 517.699 52.3654 519.322 53.9589C520.944 55.5523 522.911 56.3491 525.22 56.3491C527.514 56.3491 529.472 55.5523 531.095 53.9589C532.703 52.3807 533.506 50.3736 533.506 47.9374C533.506 45.5166 532.703 43.5171 531.095 41.939C529.472 40.3455 527.514 39.5488 525.22 39.5488C522.911 39.5488 520.944 40.3455 519.322 41.939C517.699 43.5324 516.887 45.5319 516.887 47.9374Z" fill="#57E7FF"/>
<path d="M557.639 56.464C559.137 56.464 560.487 56.1192 561.688 55.4298C562.89 54.725 563.842 53.729 564.544 52.442L569.834 54.6254C568.711 56.6632 567.057 58.2719 564.872 59.4517C562.687 60.6468 560.276 61.2444 557.639 61.2444C555.064 61.2444 552.716 60.7081 550.594 59.6356C548.44 58.5477 546.724 56.9849 545.444 54.9471C544.149 52.894 543.501 50.5651 543.501 47.9604C543.501 45.3404 544.149 43.0038 545.444 40.9507C546.724 38.9129 548.44 37.3501 550.594 36.2622C552.716 35.1897 555.064 34.6535 557.639 34.6535C560.276 34.6535 562.695 35.251 564.895 36.4461C567.096 37.6565 568.742 39.273 569.834 41.2954L564.544 43.4558C563.842 42.1688 562.89 41.1805 561.688 40.491C560.487 39.7862 559.137 39.4338 557.639 39.4338C555.345 39.4338 553.387 40.2382 551.764 41.847C550.157 43.4405 549.353 45.4783 549.353 47.9604C549.353 50.4425 550.157 52.4727 551.764 54.0508C553.387 55.6596 555.345 56.464 557.639 56.464Z" fill="#57E7FF"/>
<path d="M573.111 35.0212H597.057V39.5488H588.209V60.8996H581.983V39.5488H573.111V35.0212Z" fill="#57E7FF"/>
<path d="M613.769 34.6305C615.798 34.6305 617.702 34.9982 619.481 35.7336C621.26 36.4538 622.781 37.4727 624.045 38.7903C625.309 40.108 626.261 41.7321 626.901 43.6627C627.556 45.5779 627.822 47.654 627.697 49.8909H605.671C606.061 51.8981 607.013 53.5299 608.526 54.7862C610.009 56.0426 611.756 56.6708 613.769 56.6708C615.486 56.6708 617.007 56.2342 618.334 55.3608C619.676 54.4875 620.698 53.2694 621.4 51.7066L626.409 54.0738C625.27 56.2801 623.554 58.0345 621.26 59.3368C618.997 60.6238 616.5 61.2674 613.769 61.2674C611.881 61.2674 610.079 60.9533 608.362 60.3251C606.646 59.6969 605.14 58.8082 603.845 57.6591C602.534 56.4946 601.504 55.0774 600.755 53.4073C600.006 51.7219 599.632 49.9063 599.632 47.9604C599.632 46.0145 600.006 44.2066 600.755 42.5365C601.504 40.8511 602.534 39.4185 603.845 38.2388C605.14 37.0896 606.646 36.201 608.362 35.5728C610.079 34.9446 611.881 34.6305 613.769 34.6305ZM613.769 39.25C611.694 39.25 609.915 39.8705 608.433 41.1116C606.981 42.3373 606.053 43.9767 605.647 46.0299H621.915C621.509 43.9614 620.581 42.3143 619.13 41.0886C617.647 39.8629 615.86 39.25 613.769 39.25Z" fill="#57E7FF"/>
<path d="M638.277 25.3225H642.63C642.63 26.1805 642.904 26.893 643.45 27.4599C643.996 28.0268 644.69 28.3103 645.533 28.3103C646.376 28.3103 647.062 28.0345 647.593 27.4829C648.139 26.916 648.42 26.1958 648.435 25.3225H652.813C652.813 27.4676 652.165 29.1376 650.87 30.3327C649.59 31.5125 647.811 32.1024 645.533 32.1024C643.255 32.1024 641.468 31.5125 640.173 30.3327C638.893 29.1376 638.261 27.4676 638.277 25.3225ZM632.519 35.0212H638.745V49.4543L658.547 34.6994V60.8996H652.321V46.4436L632.519 61.1984V35.0212Z" fill="#57E7FF"/>
</g>
<defs>
<filter id="filter0_d_156_12" x="0.547363" y="45.3225" width="700" height="335" filterUnits="userSpaceOnUse" color-interpolation-filters="sRGB">
<feFlood flood-opacity="0" result="BackgroundImageFix"/>
<feColorMatrix in="SourceAlpha" type="matrix" values="0 0 0 0 0 0 0 0 0 0 0 0 0 0 0 0 0 0 127 0" result="hardAlpha"/>
<feOffset/>
<feGaussianBlur stdDeviation="12.5"/>
<feComposite in2="hardAlpha" operator="out"/>
<feColorMatrix type="matrix" values="0 0 0 0 0.766667 0 0 0 0 0.967059 0 0 0 0 1 0 0 0 1 0"/>
<feBlend mode="normal" in2="BackgroundImageFix" result="effect1_dropShadow_156_12"/>
<feBlend mode="normal" in="SourceGraphic" in2="effect1_dropShadow_156_12" result="shape"/>
</filter>
<filter id="filter1_d_156_12" x="0.547363" y="0.32251" width="683" height="95" filterUnits="userSpaceOnUse" color-interpolation-filters="sRGB">
<feFlood flood-opacity="0" result="BackgroundImageFix"/>
<feColorMatrix in="SourceAlpha" type="matrix" values="0 0 0 0 0 0 0 0 0 0 0 0 0 0 0 0 0 0 127 0" result="hardAlpha"/>
<feOffset/>
<feGaussianBlur stdDeviation="12.5"/>
<feComposite in2="hardAlpha" operator="out"/>
<feColorMatrix type="matrix" values="0 0 0 0 0.766667 0 0 0 0 0.967059 0 0 0 0 1 0 0 0 1 0"/>
<feBlend mode="normal" in2="BackgroundImageFix" result="effect1_dropShadow_156_12"/>
<feBlend mode="normal" in="SourceGraphic" in2="effect1_dropShadow_156_12" result="shape"/>
</filter>
</defs>
</svg>
